HIERARCHY
ROOT hip
{
  OFFSET 0 90.174 2.4664
  CHANNELS 6 Xposition Yposition Zposition Zrotation Xrotation Yrotation
  JOINT abdomen
  {
    OFFSET 0 -1.186 -1.5018
    CHANNELS 6 Xposition Yposition Zposition Zrotation Xrotation Yrotation
    JOINT abdomen2
    {
      OFFSET 0 9.964 0.2134
      CHANNELS 6 Xposition Yposition Zposition Zrotation Xrotation Yrotation
      JOINT chest
      {
        OFFSET 0 13.134 -3.2573
        CHANNELS 6 Xposition Yposition Zposition Zrotation Xrotation Yrotation
        JOINT neck
        {
          OFFSET 0 20.686 -1.6905
          CHANNELS 6 Xposition Yposition Zposition Zrotation Xrotation Yrotation
          JOINT head
          {
            OFFSET 0 7.238 -0.1237
            CHANNELS 6 Xposition Yposition Zposition Zrotation Xrotation Yrotation
            End Site
            {
              OFFSET 0 0 0
            }
          }
        }
        JOINT lCollar
        {
          OFFSET 1.7069 20.075 5.0056
          CHANNELS 6 Xposition Yposition Zposition Zrotation Xrotation Yrotation
          JOINT lShldr
          {
            OFFSET 13.6458 -0.047 -4.849
            CHANNELS 6 Xposition Yposition Zposition Zrotation Xrotation Yrotation
            JOINT lForeArm
            {
              OFFSET 28.3255 -0.9759 2.2888
              CHANNELS 6 Xposition Yposition Zposition Zrotation Xrotation Yrotation
              JOINT lHand
              {
                OFFSET 22.1583 -0.53 10.8316
                CHANNELS 6 Xposition Yposition Zposition Zrotation Xrotation Yrotation
                JOINT lThumb1
                {
                  OFFSET 0.786 0.112 2.5817
                  CHANNELS 6 Xposition Yposition Zposition Zrotation Xrotation Yrotation
                  JOINT lThumb2
                  {
                    OFFSET 0.3601 -0.878 4.2331
                    CHANNELS 6 Xposition Yposition Zposition Zrotation Xrotation Yrotation
                    JOINT lThumb2_End
                    {
                      OFFSET 1.8127 -1.216 2.2227
                      CHANNELS 6 Xposition Yposition Zposition Zrotation Xrotation Yrotation
                      End Site
                      {
                        OFFSET 0.0181 -0.0122 0.0222
                      }
                    }
                  }
                }
                JOINT lCarpal1
                {
                  OFFSET 0.9571 1.114 1.7695
                  CHANNELS 6 Xposition Yposition Zposition Zrotation Xrotation Yrotation
                  JOINT lIndex1
                  {
                    OFFSET 4.1246 0.487 4.1451
                    CHANNELS 6 Xposition Yposition Zposition Zrotation Xrotation Yrotation
                    JOINT lIndex2
                    {
                      OFFSET 3.4052 -1.454 2.7682
                      CHANNELS 6 Xposition Yposition Zposition Zrotation Xrotation Yrotation
                      JOINT lIndex2_End
                      {
                        OFFSET 1.4531 -1.795 1.2713
                        CHANNELS 6 Xposition Yposition Zposition Zrotation Xrotation Yrotation
                        End Site
                        {
                          OFFSET 0.0145 -0.0179 0.0127
                        }
                      }
                    }
                  }
                  JOINT lMid1
                  {
                    OFFSET 5.6954 0.21 2.1184
                    CHANNELS 6 Xposition Yposition Zposition Zrotation Xrotation Yrotation
                    JOINT lMid2
                    {
                      OFFSET 3.9766 -1.54 2.3863
                      CHANNELS 6 Xposition Yposition Zposition Zrotation Xrotation Yrotation
                      JOINT lMid2_End
                      {
                        OFFSET 1.4042 -1.926 1.125
                        CHANNELS 6 Xposition Yposition Zposition Zrotation Xrotation Yrotation
                        End Site
                        {
                          OFFSET 0.014 -0.0193 0.0113
                        }
                      }
                    }
                  }
                }
                JOINT lCarpal2
                {
                  OFFSET 2.0956 0.66 -0.3894
                  CHANNELS 6 Xposition Yposition Zposition Zrotation Xrotation Yrotation
                  JOINT lRing1
                  {
                    OFFSET 5.0395 -0.09 2.4971
                    CHANNELS 6 Xposition Yposition Zposition Zrotation Xrotation Yrotation
                    JOINT lRing2
                    {
                      OFFSET 3.7921 -1.552 1.4806
                      CHANNELS 6 Xposition Yposition Zposition Zrotation Xrotation Yrotation
                      JOINT lRing2_End
                      {
                        OFFSET 1.4655 -1.808 0.9609
                        CHANNELS 6 Xposition Yposition Zposition Zrotation Xrotation Yrotation
                        End Site
                        {
                          OFFSET 0.0147 -0.0181 0.0096
                        }
                      }
                    }
                  }
                  JOINT lPinky1
                  {
                    OFFSET 4.9141 -1.269 0.3591
                    CHANNELS 6 Xposition Yposition Zposition Zrotation Xrotation Yrotation
                    JOINT lPinky2
                    {
                      OFFSET 3.1477 -1.685 0.8462
                      CHANNELS 6 Xposition Yposition Zposition Zrotation Xrotation Yrotation
                      JOINT lPinky2_End
                      {
                        OFFSET 0.8055 -1.585 0.7955
                        CHANNELS 6 Xposition Yposition Zposition Zrotation Xrotation Yrotation
                        End Site
                        {
                          OFFSET 0.0081 -0.0158 0.008
                        }
                      }
                    }
                  }
                }
              }
            }
          }
        }
        JOINT rCollar
        {
          OFFSET -1.7069 20.075 5.0056
          CHANNELS 6 Xposition Yposition Zposition Zrotation Xrotation Yrotation
          JOINT rShldr
          {
            OFFSET -13.6458 -0.047 -4.849
            CHANNELS 6 Xposition Yposition Zposition Zrotation Xrotation Yrotation
            JOINT rForeArm
            {
              OFFSET -28.3255 -0.9759 2.2888
              CHANNELS 6 Xposition Yposition Zposition Zrotation Xrotation Yrotation
              JOINT rHand
              {
                OFFSET -22.1583 -0.53 10.8316
                CHANNELS 6 Xposition Yposition Zposition Zrotation Xrotation Yrotation
                JOINT rThumb1
                {
                  OFFSET -0.786 0.112 2.5817
                  CHANNELS 6 Xposition Yposition Zposition Zrotation Xrotation Yrotation
                  JOINT rThumb2
                  {
                    OFFSET -0.3601 -0.878 4.2331
                    CHANNELS 6 Xposition Yposition Zposition Zrotation Xrotation Yrotation
                    JOINT rThumb2_End
                    {
                      OFFSET -1.8127 -1.216 2.2227
                      CHANNELS 6 Xposition Yposition Zposition Zrotation Xrotation Yrotation
                      End Site
                      {
                        OFFSET -0.0181 -0.0122 0.0222
                      }
                    }
                  }
                }
                JOINT rCarpal1
                {
                  OFFSET -0.9571 1.114 1.7695
                  CHANNELS 6 Xposition Yposition Zposition Zrotation Xrotation Yrotation
                  JOINT rIndex1
                  {
                    OFFSET -4.1246 0.487 4.1451
                    CHANNELS 6 Xposition Yposition Zposition Zrotation Xrotation Yrotation
                    JOINT rIndex2
                    {
                      OFFSET -3.4052 -1.454 2.7682
                      CHANNELS 6 Xposition Yposition Zposition Zrotation Xrotation Yrotation
                      JOINT rIndex2_End
                      {
                        OFFSET -1.4531 -1.795 1.2713
                        CHANNELS 6 Xposition Yposition Zposition Zrotation Xrotation Yrotation
                        End Site
                        {
                          OFFSET -0.0145 -0.018 0.0127
                        }
                      }
                    }
                  }
                  JOINT rMid1
                  {
                    OFFSET -5.6954 0.21 2.1184
                    CHANNELS 6 Xposition Yposition Zposition Zrotation Xrotation Yrotation
                    JOINT rMid2
                    {
                      OFFSET -3.9766 -1.54 2.3863
                      CHANNELS 6 Xposition Yposition Zposition Zrotation Xrotation Yrotation
                      JOINT rMid2_End
                      {
                        OFFSET -1.4042 -1.926 1.125
                        CHANNELS 6 Xposition Yposition Zposition Zrotation Xrotation Yrotation
                        End Site
                        {
                          OFFSET -0.014 -0.0193 0.0113
                        }
                      }
                    }
                  }
                }
                JOINT rCarpal2
                {
                  OFFSET -2.0956 0.66 -0.3894
                  CHANNELS 6 Xposition Yposition Zposition Zrotation Xrotation Yrotation
                  JOINT rRing1
                  {
                    OFFSET -5.0395 -0.09 2.4971
                    CHANNELS 6 Xposition Yposition Zposition Zrotation Xrotation Yrotation
                    JOINT rRing2
                    {
                      OFFSET -3.7921 -1.552 1.4806
                      CHANNELS 6 Xposition Yposition Zposition Zrotation Xrotation Yrotation
                      JOINT rRing2_End
                      {
                        OFFSET -1.4655 -1.808 0.9609
                        CHANNELS 6 Xposition Yposition Zposition Zrotation Xrotation Yrotation
                        End Site
                        {
                          OFFSET -0.0147 -0.0181 0.0096
                        }
                      }
                    }
                  }
                  JOINT rPinky1
                  {
                    OFFSET -4.9141 -1.269 0.3592
                    CHANNELS 6 Xposition Yposition Zposition Zrotation Xrotation Yrotation
                    JOINT rPinky2
                    {
                      OFFSET -3.1477 -1.685 0.8462
                      CHANNELS 6 Xposition Yposition Zposition Zrotation Xrotation Yrotation
                      JOINT rPinky2_End
                      {
                        OFFSET -0.8055 -1.585 0.7955
                        CHANNELS 6 Xposition Yposition Zposition Zrotation Xrotation Yrotation
                        End Site
                        {
                          OFFSET -0.0081 -0.0158 0.008
                        }
                      }
                    }
                  }
                }
              }
            }
          }
        }
      }
    }
  }
  JOINT lThigh
  {
    OFFSET 8.367 -8.2066 0.5982
    CHANNELS 6 Xposition Yposition Zposition Zrotation Xrotation Yrotation
    JOINT lShin
    {
      OFFSET 2.1923 -43.463 -0.4932
      CHANNELS 6 Xposition Yposition Zposition Zrotation Xrotation Yrotation
      JOINT lFoot
      {
        OFFSET 0.7333 -45.8593 -2.6451
        CHANNELS 6 Xposition Yposition Zposition Zrotation Xrotation Yrotation
        End Site
        {
          OFFSET 2.6618 -4.2699 12.3931
        }
      }
    }
  }
  JOINT rThigh
  {
    OFFSET -8.367 -8.2066 0.5982
    CHANNELS 6 Xposition Yposition Zposition Zrotation Xrotation Yrotation
    JOINT rShin
    {
      OFFSET -2.1923 -43.463 -0.4931
      CHANNELS 6 Xposition Yposition Zposition Zrotation Xrotation Yrotation
      JOINT rFoot
      {
        OFFSET -0.7333 -45.8593 -2.6451
        CHANNELS 6 Xposition Yposition Zposition Zrotation Xrotation Yrotation
        End Site
        {
          OFFSET -2.6618 -4.2699 12.3931
        }
      }
    }
  }
}
MOTION
Frames:	4
Frame Time:	0.0333333
0 90.174 2.4664 0 0 -0 0 -1.186 -1.5018 0 0 -0 0 9.964 0.2134 0 0 -0 0 13.134 -3.2573 0 0 -0 0 20.686 -1.6905 0 0 -0 0 7.238 -0.1237 0 0 -0 1.7069 20.075 5.0056 0 0 -0 13.6458 -0.047 -4.849 1.66051 0.0835086 5.75766 28.3255 -0.9759 2.2888 -0.0175111 0.895433 15.7816 22.1583 -0.53 10.8316 7.95139e-016 -1.98785e-016 -0 0.786 0.112 2.5817 5.46658e-016 -3.97569e-016 -0 0.3601 -0.878 4.2331 5.96354e-016 0 -0 1.8127 -1.216 2.2227 3.97569e-016 1.98785e-016 9.54166e-015 0.9571 1.114 1.7695 1.49089e-016 -3.97569e-016 -0 4.1246 0.487 4.1451 6.4605e-016 0 3.18055e-015 3.4052 -1.454 2.7682 5.96354e-016 0 3.18055e-015 1.4531 -1.795 1.2713 8.94531e-016 -1.98785e-016 6.36111e-015 5.6954 0.21 2.1184 6.4605e-016 0 3.18055e-015 3.9766 -1.54 2.3863 5.96354e-016 0 3.18055e-015 1.4042 -1.926 1.125 8.94531e-016 -1.98785e-016 6.36111e-015 2.0956 0.66 -0.3894 1.49089e-016 -3.97569e-016 -0 5.0395 -0.09 2.4971 6.4605e-016 0 3.18055e-015 3.7921 -1.552 1.4806 5.96354e-016 0 3.18055e-015 1.4655 -1.808 0.9609 8.94531e-016 -1.98785e-016 6.36111e-015 4.9141 -1.269 0.3591 6.4605e-016 0 3.18055e-015 3.1477 -1.685 0.8462 5.96354e-016 0 3.18055e-015 0.8055 -1.585 0.7955 8.94531e-016 -1.98785e-016 6.36111e-015 -1.7069 20.075 5.0056 0 0 -0 -13.6458 -0.047 -4.849 -1.4496 0.0636048 -5.0245 -28.3255 -0.9759 2.2888 -1.74811 1.20616 -16.8394 -22.1583 -0.53 10.8316 -1.19271e-015 1.98785e-016 -3.18055e-015 -0.786 0.112 2.5817 -3.97569e-016 1.98785e-016 -3.18055e-015 -0.3601 -0.878 4.2331 -2.98177e-016 1.98785e-016 -3.18055e-015 -1.8127 -1.216 2.2227 -2.98177e-016 3.97569e-016 -0 -0.9571 1.114 1.7695 4.96962e-016 0 -6.36111e-015 -4.1246 0.487 4.1451 -9.93923e-017 3.97569e-016 -0 -3.4052 -1.454 2.7682 -8.94531e-016 5.96354e-016 -0 -1.4531 -1.795 1.2713 -3.97569e-016 3.97569e-016 -0 -5.6954 0.21 2.1184 -9.93923e-017 3.97569e-016 -0 -3.9766 -1.54 2.3863 -8.94531e-016 5.96354e-016 -0 -1.4042 -1.926 1.125 -3.97569e-016 3.97569e-016 -0 -2.0956 0.66 -0.3894 4.96962e-016 0 -6.36111e-015 -5.0395 -0.09 2.4971 -9.93923e-017 3.97569e-016 -0 -3.7921 -1.552 1.4806 -8.94531e-016 5.96354e-016 -0 -1.4655 -1.808 0.9609 -3.97569e-016 3.97569e-016 -0 -4.9141 -1.269 0.3592 -9.93923e-017 3.97569e-016 -0 -3.1477 -1.685 0.8462 -8.94531e-016 5.96354e-016 -0 -0.8055 -1.585 0.7955 -3.97569e-016 3.97569e-016 -0 8.367 -8.2066 0.5982 -4.66115 -1.03232 0.120763 2.1923 -43.463 -0.4932 0.00990601 1.55097 0.177175 0.7333 -45.8593 -2.6451 4.65196 -0.54114 -0.255042 -8.367 -8.2066 0.5982 4.66115 -1.03222 -0.120763 -2.1923 -43.463 -0.4931 -0.00990459 1.5509 -0.177176 -0.7333 -45.8593 -2.6451 -4.65196 -0.541171 0.255041 
4.53918 60.4908 0.96313 -33.3353 -33.3814 -0.00233506 0 -1.186 -1.5018 0.195043 0.209909 -0.136897 0 9.964 0.2134 0.390612 0.419351 -0.274522 -3.55271e-015 13.134 -3.2573 0.390607 0.419324 -0.274528 0 20.686 -1.6905 3.29052 -11.0031 1.73125 -3.55271e-015 7.238 -0.1237 8.05515 5.1596 -2.06292 1.7069 20.075 5.0056 -3.00616 -3.3019 0.989095 13.6458 -0.047 -4.849 -11.7887 -6.67709 -19.2608 28.3255 -0.9759 2.2888 -28.2826 6.25968 10.5014 22.1583 -0.53 10.8316 -10.4446 5.83124 -3.0943 0.786 0.112 2.5817 -7.95139e-016 -7.95139e-016 -6.36111e-015 0.3601 -0.878 4.2331 0 7.95139e-016 -0 1.8127 -1.216 2.2227 0 7.95139e-016 -0 0.9571 1.114 1.7695 -7.95139e-016 -7.95139e-016 -6.36111e-015 4.1246 0.487 4.1451 1.59028e-015 7.95139e-016 -0 3.4052 -1.454 2.7682 -1.59028e-015 1.59028e-015 -0 1.4531 -1.795 1.2713 -1.59028e-015 7.95139e-016 3.18055e-015 5.6954 0.21 2.1184 1.59028e-015 7.95139e-016 -0 3.9766 -1.54 2.3863 -1.59028e-015 1.59028e-015 -0 1.4042 -1.926 1.125 -1.59028e-015 7.95139e-016 3.18055e-015 2.0956 0.66 -0.3894 -7.95139e-016 -7.95139e-016 -6.36111e-015 5.0395 -0.09 2.4971 1.59028e-015 7.95139e-016 -0 3.7921 -1.552 1.4806 -1.59028e-015 1.59028e-015 -0 1.4655 -1.808 0.9609 -1.59028e-015 7.95139e-016 3.18055e-015 4.9141 -1.269 0.3591 1.59028e-015 7.95139e-016 -0 3.1477 -1.685 0.8462 -1.59028e-015 1.59028e-015 -0 0.8055 -1.585 0.7955 -1.59028e-015 7.95139e-016 3.18055e-015 -1.7069 20.075 5.0056 -4.69707 -4.84177 -5.6667 -13.6458 -0.047 -4.849 21.4322 5.13021 14.3952 -28.3255 -0.9759 2.2888 19.7875 3.11919 9.63484 -22.1583 -0.53 10.8316 16.7434 2.14762 4.05733 -0.786 0.112 2.5817 -2.57797e-006 8.73128e-007 -1.85555e-006 -0.3601 -0.878 4.2331 -3.09848e-006 1.31419e-006 4.25237e-007 -1.8127 -1.216 2.2227 7.00177e-007 -9.90652e-007 2.16638e-006 -0.9571 1.114 1.7695 7.95139e-016 1.59028e-015 6.36111e-015 -4.1246 0.487 4.1451 -2.57797e-006 8.73128e-007 -1.85555e-006 -3.4052 -1.454 2.7682 -3.09848e-006 1.31419e-006 4.25237e-007 -1.4531 -1.795 1.2713 7.00177e-007 -9.90652e-007 2.16638e-006 -5.6954 0.21 2.1184 -2.57797e-006 8.73128e-007 -1.85555e-006 -3.9766 -1.54 2.3863 -3.09848e-006 1.31419e-006 4.25237e-007 -1.4042 -1.926 1.125 7.00177e-007 -9.90652e-007 2.16638e-006 -2.0956 0.66 -0.3894 7.95139e-016 1.59028e-015 6.36111e-015 -5.0395 -0.09 2.4971 -2.57797e-006 8.73128e-007 -1.85555e-006 -3.7921 -1.552 1.4806 -3.09848e-006 1.31419e-006 4.25237e-007 -1.4655 -1.808 0.9609 7.00177e-007 -9.90652e-007 2.16638e-006 -4.9141 -1.269 0.3592 -2.57797e-006 8.73128e-007 -1.85555e-006 -3.1477 -1.685 0.8462 -3.09848e-006 1.31419e-006 4.25237e-007 -0.8055 -1.585 0.7955 7.00177e-007 -9.90652e-007 2.16638e-006 8.367 -8.2066 0.5982 -2.3476 -12.7269 4.1924 2.1923 -43.463 -0.4932 -0.333242 14.7809 -0.234926 0.7333 -45.8593 -2.6451 3.10022 16.482 -1.60316 -8.367 -8.2066 0.5982 -4.17265 -16.2488 -5.87997 -2.1923 -43.463 -0.4931 11.2016 37.2997 -30.3412 -0.7333 -45.8593 -2.6451 -1.35759 8.82406 2.7506 
3.37243 27.4151 1.15268 -66.677 -66.7629 -0.00987896 0 -1.186 -1.5018 0.393535 0.415581 -0.236804 0 9.964 0.2134 0.788807 0.82953 -0.476434 0 13.134 -3.2573 0.788817 0.829549 -0.476449 0 20.686 -1.6905 7.29324 -21.9752 3.66542 0 7.238 -0.1237 16.4871 10.299 -4.17651 1.7069 20.075 5.0056 -5.89761 -6.60082 1.98806 13.6458 -0.047 -4.849 -30.1914 -9.75812 -44.9157 28.3255 -0.9759 2.2888 -56.2974 10.8572 6.37496 22.1583 -0.53 10.8316 -20.8677 11.4767 -5.47687 0.786 0.112 2.5817 -1.59028e-015 -7.95139e-015 -3.18055e-015 0.3601 -0.878 4.2331 -5.29669e-031 -9.54166e-015 -3.18055e-015 1.8127 -1.216 2.2227 1.59028e-015 -6.36111e-015 -4.77083e-015 0.9571 1.114 1.7695 -1.59028e-015 -2.38542e-015 -3.18055e-015 4.1246 0.487 4.1451 -9.54166e-015 1.66979e-014 3.18055e-015 3.4052 -1.454 2.7682 1.59028e-015 -5.56597e-015 -4.77083e-015 1.4531 -1.795 1.2713 -0 -7.95139e-015 -0 5.6954 0.21 2.1184 -9.54166e-015 1.66979e-014 3.18055e-015 3.9766 -1.54 2.3863 1.59028e-015 -5.56597e-015 -4.77083e-015 1.4042 -1.926 1.125 -0 -7.95139e-015 -0 2.0956 0.66 -0.3894 -1.59028e-015 -2.38542e-015 -3.18055e-015 5.0395 -0.09 2.4971 -9.54166e-015 1.66979e-014 3.18055e-015 3.7921 -1.552 1.4806 1.59028e-015 -5.56597e-015 -4.77083e-015 1.4655 -1.808 0.9609 -0 -7.95139e-015 -0 4.9141 -1.269 0.3591 -9.54166e-015 1.66979e-014 3.18055e-015 3.1477 -1.685 0.8462 1.59028e-015 -5.56597e-015 -4.77083e-015 0.8055 -1.585 0.7955 -0 -7.95139e-015 -0 -1.7069 20.075 5.0056 -10.3577 -9.54065 -11.4534 -13.6458 -0.047 -4.849 40.9875 8.32527 34.1404 -28.3255 -0.9759 2.2888 40.9143 3.73803 35.4226 -22.1583 -0.53 10.8316 34.1047 4.14577 6.27223 -0.786 0.112 2.5817 1.57076e-006 -4.77402e-007 -5.95202e-006 -0.3601 -0.878 4.2331 6.36111e-015 -3.18055e-015 -0 -1.8127 -1.216 2.2227 -1.93539e-006 1.22056e-006 5.74386e-006 -0.9571 1.114 1.7695 -3.18055e-015 -4.77083e-015 -9.54166e-015 -4.1246 0.487 4.1451 1.57076e-006 -4.77402e-007 -5.95202e-006 -3.4052 -1.454 2.7682 4.77083e-015 0 -0 -1.4531 -1.795 1.2713 -1.93539e-006 1.22056e-006 5.74386e-006 -5.6954 0.21 2.1184 1.57076e-006 -4.77402e-007 -5.95202e-006 -3.9766 -1.54 2.3863 4.77083e-015 0 -0 -1.4042 -1.926 1.125 -1.93539e-006 1.22056e-006 5.74386e-006 -2.0956 0.66 -0.3894 -3.18055e-015 -4.77083e-015 -9.54166e-015 -5.0395 -0.09 2.4971 1.57076e-006 -4.77402e-007 -5.95202e-006 -3.7921 -1.552 1.4806 4.77083e-015 0 -0 -1.4655 -1.808 0.9609 -1.93539e-006 1.22056e-006 5.74386e-006 -4.9141 -1.269 0.3592 1.57076e-006 -4.77402e-007 -5.95202e-006 -3.1477 -1.685 0.8462 4.77083e-015 0 -0 -0.8055 -1.585 0.7955 -1.93539e-006 1.22056e-006 5.74386e-006 8.367 -8.2066 0.5982 3.55146 -31.0287 9.32375 2.1923 -43.463 -0.4932 -0.0456905 39.6907 -1.0868 0.7333 -45.8593 -2.6451 1.88373 28.8273 -2.93065 -8.367 -8.2066 0.5982 -15.6673 -28.2102 -12.985 -2.1923 -43.463 -0.4931 57.0471 43.2983 -77.5663 -0.7333 -45.8593 -2.6451 1.83428 19.9939 2.86502 
-0.254245 6.15631 3.41035 161.594 -89.9945 -108.404 0 -1.186 -1.5018 0.529362 0.51846 -0.282276 0 9.964 0.2134 1.06131 1.03429 -0.569315 0 13.134 -3.2573 1.06131 1.03431 -0.569342 8.88178e-016 20.686 -1.6905 10.3602 -29.5967 5.15671 1.77636e-015 7.238 -0.1237 22.6971 13.8815 -5.73246 1.7069 20.075 5.0056 -7.87142 -8.78492 2.68372 13.6458 -0.047 -4.849 -44.4011 -8.2877 -62.725 28.3255 -0.9759 2.2888 -75.7529 13.2994 3.94717 22.1583 -0.53 10.8316 -28.2376 15.2417 -6.73093 0.786 0.112 2.5817 4.09993e-016 3.72721e-017 1.27222e-014 0.3601 -0.878 4.2331 1.61513e-016 2.85753e-016 9.54166e-015 1.8127 -1.216 2.2227 -2.60905e-016 1.86361e-016 6.36111e-015 0.9571 1.114 1.7695 4.22417e-016 -1.61513e-016 -0 4.1246 0.487 4.1451 4.09993e-016 1.49089e-016 9.54166e-015 3.4052 -1.454 2.7682 1.61513e-016 5.71506e-016 9.54166e-015 1.4531 -1.795 1.2713 -2.60905e-016 4.5969e-016 6.36111e-015 5.6954 0.21 2.1184 4.09993e-016 1.49089e-016 9.54166e-015 3.9766 -1.54 2.3863 1.61513e-016 5.71506e-016 9.54166e-015 1.4042 -1.926 1.125 -2.60905e-016 4.5969e-016 6.36111e-015 2.0956 0.66 -0.3894 4.22417e-016 -1.61513e-016 -0 5.0395 -0.09 2.4971 4.09993e-016 1.49089e-016 9.54166e-015 3.7921 -1.552 1.4806 1.61513e-016 5.71506e-016 9.54166e-015 1.4655 -1.808 0.9609 -2.60905e-016 4.5969e-016 6.36111e-015 4.9141 -1.269 0.3591 4.09993e-016 1.49089e-016 9.54166e-015 3.1477 -1.685 0.8462 1.61513e-016 5.71506e-016 9.54166e-015 0.8055 -1.585 0.7955 -2.60905e-016 4.5969e-016 6.36111e-015 -1.7069 20.075 5.0056 -14.8961 -12.5657 -15.6822 -13.6458 -0.047 -4.849 53.3513 8.64392 48.0372 -28.3255 -0.9759 2.2888 55.878 3.12884 53.0769 -22.1583 -0.53 10.8316 46.6062 5.183 6.77082 -0.786 0.112 2.5817 2.56168e-015 -6.36111e-015 -5.09386e-016 -0.3601 -0.878 4.2331 2.58109e-015 0 3.54085e-016 -1.8127 -1.216 2.2227 2.60206e-015 0 4.03781e-016 -0.9571 1.114 1.7695 2.53994e-015 -3.18055e-015 -3.72721e-016 -4.1246 0.487 4.1451 1.56543e-015 0 6.68413e-015 -3.4052 -1.454 2.7682 3.23025e-015 0 -1.36664e-016 -1.4531 -1.795 1.2713 3.29237e-015 -1.59028e-015 -1.36664e-016 -5.6954 0.21 2.1184 1.56543e-015 0 6.68413e-015 -3.9766 -1.54 2.3863 3.23025e-015 0 -1.36664e-016 -1.4042 -1.926 1.125 3.29237e-015 -1.59028e-015 -1.36664e-016 -2.0956 0.66 -0.3894 2.53994e-015 -3.18055e-015 -3.72721e-016 -5.0395 -0.09 2.4971 1.56543e-015 0 6.68413e-015 -3.7921 -1.552 1.4806 3.23025e-015 0 -1.36664e-016 -1.4655 -1.808 0.9609 3.29237e-015 -1.59028e-015 -1.36664e-016 -4.9141 -1.269 0.3592 1.56543e-015 0 6.68413e-015 -3.1477 -1.685 0.8462 3.23025e-015 0 -1.36664e-016 -0.8055 -1.585 0.7955 3.29237e-015 -1.59028e-015 -1.36664e-016 8.367 -8.2066 0.5982 9.05827 -42.6442 14.4383 2.1923 -43.463 -0.4932 1.61103 53.2489 -2.62156 0.7333 -45.8593 -2.6451 2.25235 40.2483 -4.38152 -8.367 -8.2066 0.5982 -27.2227 -35.8959 -19.6346 -2.1923 -43.463 -0.4931 86.0292 28.5131 -96.8584 -0.7333 -45.8593 -2.6451 5.22944 27.5772 2.24433 
